<?xml version="1.0" encoding="UTF-8" standalone="no"?>
<svg
   xmlns:dc="http://purl.org/dc/elements/1.1/"
   xmlns:cc="http://creativecommons.org/ns#"
   xmlns:rdf="http://www.w3.org/1999/02/22-rdf-syntax-ns#"
   xmlns:svg="http://www.w3.org/2000/svg"
   xmlns="http://www.w3.org/2000/svg"
   xmlns:sodipodi="http://sodipodi.sourceforge.net/DTD/sodipodi-0.dtd"
   xmlns:inkscape="http://www.inkscape.org/namespaces/inkscape"
   viewBox="0 0 700 700"
   version="1.1"
   id="svg22"
   sodipodi:docname="gazin-logo.svg"
   width="700"
   height="700"
   style="fill:none"
   inkscape:version="0.92.4 (5da689c313, 2019-01-14)"
   inkscape:export-filename="C:\Users\suitedoalex\sites\gazin-logo-0.png"
   inkscape:export-xdpi="561.73712"
   inkscape:export-ydpi="561.73712">
  <metadata
     id="metadata28">
    <rdf:RDF>
      <cc:Work
         rdf:about="">
        <dc:format>image/svg+xml</dc:format>
        <dc:type
           rdf:resource="http://purl.org/dc/dcmitype/StillImage" />
        <dc:title></dc:title>
      </cc:Work>
    </rdf:RDF>
  </metadata>
  <defs
     id="defs26" />
  <sodipodi:namedview
     pagecolor="#ffffff"
     bordercolor="#666666"
     borderopacity="1"
     objecttolerance="10"
     gridtolerance="10"
     guidetolerance="10"
     inkscape:pageopacity="0"
     inkscape:pageshadow="2"
     inkscape:window-width="1600"
     inkscape:window-height="837"
     id="namedview24"
     showgrid="false"
     inkscape:zoom="0.44414894"
     inkscape:cx="-86.808795"
     inkscape:cy="135.65466"
     inkscape:window-x="-8"
     inkscape:window-y="-8"
     inkscape:window-maximized="1"
     inkscape:current-layer="svg22" />
  <path
     d="m 619.96796,287.91663 c -1.66592,-2.68794 -4.5334,-4.30331 -7.64467,-4.30331 H 202.02837 l -0.61819,0.0203 c -0.39907,0.0464 -18.67981,1.29231 -39.02381,7.59226 -10.18098,3.17544 -20.91951,7.58787 -30.30411,14.13375 -9.34484,6.50662 -17.58564,15.44781 -21.20452,27.50339 -1.46015,4.85208 -2.16977,9.52072 -2.16977,13.96938 -0.0357,9.14225 3.11592,17.09834 7.58111,23.06054 3.58319,4.80245 7.84754,8.46979 12.1473,11.35266 H 96.433869 c -2.811027,0 -5.47244,1.33766 -7.180706,3.6093 l -8.833374,16.27 c -1.847885,3.28019 -2.446276,6.56647 -0.926079,9.70531 1.515923,3.14783 4.675981,5.15478 8.106765,5.15478 h 50.759175 l 411.4248,0.40168 c 3.28541,0 6.29219,-1.81044 7.89427,-4.74294 l 50.86287,-93.12825 c 0.36569,-0.67246 0.62981,-1.38846 0.82135,-2.11897 1.69785,-0.91104 3.11127,-2.35029 3.96745,-4.19265 l 7.15999,-15.39259 c 1.33796,-2.86838 1.1377,-6.20827 -0.52242,-8.89472"
     id="path2"
     inkscape:connector-curvature="0"
     style="clip-rule:evenodd;fill:#1b4e8d;fill-rule:evenodd;stroke-width:2.90230393"
     inkscape:export-filename="C:\Users\suitedoalex\sites\gazin-logo-4.png"
     inkscape:export-xdpi="70.752174"
     inkscape:export-ydpi="70.752174" />
  <path
     d="m 620.11888,288.16842 c -0.0493,-0.0845 -0.0987,-0.1689 -0.15092,-0.25191 0.0522,0.083 0.10158,0.16746 0.15092,0.25191"
     id="path4"
     inkscape:connector-curvature="0"
     style="clip-rule:evenodd;fill:#fffffe;fill-rule:evenodd;stroke-width:2.90230393"
     inkscape:export-filename="C:\Users\suitedoalex\sites\gazin-logo-4.png"
     inkscape:export-xdpi="70.752174"
     inkscape:export-ydpi="70.752174" />
  <path
     d="m 234.92366,391.55522 c 2.46463,6.98382 7.18784,10.62651 13.29835,14.4976 H 88.025865 l 8.193698,-14.4976 H 234.92366"
     id="path6"
     inkscape:connector-curvature="0"
     style="clip-rule:evenodd;fill:#fffffe;fill-rule:evenodd;stroke-width:2.90230393"
     inkscape:export-filename="C:\Users\suitedoalex\sites\gazin-logo-4.png"
     inkscape:export-xdpi="70.752174"
     inkscape:export-ydpi="70.752174" />
  <path
     d="m 218.03719,381.03757 h -58.32877 c 0,0 -1.60294,0.18632 -4.20718,-0.79176 -8.82358,-3.31065 -28.21707,-12.96226 -28.47479,-33.91254 -0.0357,-2.86545 -0.58424,-20.74945 24.09086,-34.55297 2.61991,-1.46837 17.94321,-9.52342 39.01074,-12.94915 2.15409,-0.3522 12.83834,-2.18877 35.26357,-3.42722 l 231.48428,0.003 -7.97844,14.18182 H 217.24921 c 0,0 -6.26027,0.0569 -9.55845,0.55881 -3.30543,0.50209 -14.78724,1.47277 -25.63953,8.17131 -2.84949,1.75823 -13.39413,8.45384 -19.35517,18.66414 0,0 -4.34389,6.70171 -2.6472,14.7437 0.93745,4.46926 3.69724,9.85362 14.15337,12.60413 1.48889,0.39297 8.46313,1.0843 9.2778,1.00565 0.80945,-0.0757 11.64869,0.14715 11.64869,0.14715 l 15.11084,-26.19968 -13.53634,0.10622 8.11513,-14.15425 h 44.83101 l -31.61217,55.80174"
     id="path8"
     inkscape:connector-curvature="0"
     style="clip-rule:evenodd;fill:#fffffe;fill-rule:evenodd;stroke-width:2.90230393"
     inkscape:export-filename="C:\Users\suitedoalex\sites\gazin-logo-4.png"
     inkscape:export-xdpi="70.752174"
     inkscape:export-ydpi="70.752174" />
  <path
     d="m 354.79722,315.58307 h -7.49113 c 0,0 -16.38612,-0.13264 -23.29041,0.35785 -24.62227,1.74198 -50.92005,8.73623 -70.02592,25.69468 -1.35044,1.19778 -8.05098,6.48171 -13.65882,17.72524 -1.03438,2.07543 -4.38393,10.67177 0.0726,21.4248 0.48033,1.16005 4.10037,10.83316 19.70287,22.00121 l 13.22579,-14.36669 c 0,0 -5.7573,-4.26552 -7.3376,-10.01237 -0.3445,-1.25873 -1.00275,-5.91287 1.44187,-10.67178 0.53431,-1.04047 1.04743,-2.11868 1.72252,-3.07063 l 28.08443,-0.002 -9.25487,16.37365 h 29.81102 l 24.52852,-43.3967 h -29.80985 l -5.9355,10.4985 -27.08865,-0.0261 c 0,0 5.83014,-10.9176 28.17556,-15.10591 1.97067,-0.36947 10.00192,-1.34173 16.99879,-1.33739 l 21.01182,0.003 9.117,-16.09095"
     id="path10"
     inkscape:connector-curvature="0"
     style="clip-rule:evenodd;fill:#fffffe;fill-rule:evenodd;stroke-width:2.90230393"
     inkscape:export-filename="C:\Users\suitedoalex\sites\gazin-logo-4.png"
     inkscape:export-xdpi="70.752174"
     inkscape:export-ydpi="70.752174" />
  <path
     d="M 363.47714,315.58335 354.98152,331.36 h 35.58834 l -64.09883,49.67786 h 82.02636 l 9.23513,-16.33416 h -35.7883 l 63.55175,-49.12035 h -82.01883"
     id="path12"
     inkscape:connector-curvature="0"
     style="clip-rule:evenodd;fill:#fffffe;fill-rule:evenodd;stroke-width:2.90230393"
     inkscape:export-filename="C:\Users\suitedoalex\sites\gazin-logo-4.png"
     inkscape:export-xdpi="70.752174"
     inkscape:export-ydpi="70.752174" />
  <path
     d="m 463.52507,315.95282 -36.62417,65.46756 h 36.33104 l 36.76639,-65.46756 h -36.47326"
     id="path14"
     inkscape:connector-curvature="0"
     style="clip-rule:evenodd;fill:#fffffe;fill-rule:evenodd;stroke-width:2.90230393"
     inkscape:export-filename="C:\Users\suitedoalex\sites\gazin-logo-4.png"
     inkscape:export-xdpi="70.752174"
     inkscape:export-ydpi="70.752174" />
  <path
     d="m 502.85129,309.55089 h -36.2933 l 8.05098,-14.13669 h 36.34555 l -8.10323,14.13669"
     id="path16"
     inkscape:connector-curvature="0"
     style="clip-rule:evenodd;fill:#fffffe;fill-rule:evenodd;stroke-width:2.90230393"
     inkscape:export-filename="C:\Users\suitedoalex\sites\gazin-logo-4.png"
     inkscape:export-xdpi="70.752174"
     inkscape:export-ydpi="70.752174" />
  <path
     d="m 612.3262,295.40959 -8.01617,14.17889 h -89.49544 l 8.01616,-14.17889 h 89.49545"
     id="path18"
     inkscape:connector-curvature="0"
     style="clip-rule:evenodd;fill:#fffffe;fill-rule:evenodd;stroke-width:2.90230393"
     inkscape:export-filename="C:\Users\suitedoalex\sites\gazin-logo-4.png"
     inkscape:export-xdpi="70.752174"
     inkscape:export-ydpi="70.752174" />
  <path
     d="m 511.41889,315.58335 -36.97534,65.45451 h 31.63801 l 24.67829,-43.66458 9.27286,25.75591 -16.06425,28.42603 H 282.10032 l -8.23906,14.4976 h 275.92899 l 51.1415,-90.46947 h -34.0121 l -12.36091,21.84681 -7.07292,-21.84681 z"
     id="path20"
     inkscape:connector-curvature="0"
     style="clip-rule:evenodd;fill:#fffffe;fill-rule:evenodd;stroke-width:2.90230393"
     inkscape:export-filename="C:\Users\suitedoalex\sites\gazin-logo-4.png"
     inkscape:export-xdpi="70.752174"
     inkscape:export-ydpi="70.752174" />
</svg>
